#!OML:ASF H:\ManfredETheater\Project 1\Capture day 1\Session 1\subject.ASF
:FULLY-SPECIFIED
:DEGREES
81
root 0.673789 17.1274 -0.899954 10.2637 18.7771 -17.7937
lowerback 15.2594 1.49722 12.8091
upperback -0.0877852 5.01705 7.68029
thorax -8.37377 2.07767 0.0620777
lowerneck -19.9476 -1.38747 -0.654024
upperneck 7.78028 -1.28553 -3.01916
head 5.54115 -0.887358 -0.991826
rclavicle 7.71285e-014 4.37326e-014
rhumerus -48.3828 5.70842 -84.4448
rradius 104.746
rwrist -7.4827
rhand -23.6973 11.9395
rfingers 7.12502
rthumb 2.76968 -18.0223
lclavicle 7.71285e-014 4.37326e-014
lhumerus -79.8165 -5.03542 99.3332
lradius 105.329
lwrist 25.0509
lhand -21.7643 -7.07738
lfingers 7.12502
lthumb 4.63633 22.8519
rfemur 1.71615 -4.25755 27.8921
rtibia 49.923
rfoot 16.9709 -1.04625
rtoes -30.8739
lfemur -55.0129 7.2587 -32.5211
ltibia 39.6319
lfoot -0.352868 -9.98926
ltoes 1.83199
82
root 0.750622 17.0573 -0.330852 9.82319 19.0476 -17.8868
lowerback 15.1318 1.47366 12.6051
upperback -0.0444147 4.91657 7.64067
thorax -8.27195 2.04477 0.153472
lowerneck -19.8683 -1.41311 -0.730554
upperneck 7.85591 -1.32866 -2.79599
head 5.55377 -0.893293 -0.912574
rclavicle 6.36111e-015 -7.15625e-015
rhumerus -48.9271 5.16887 -84.4379
rradius 103.055
rwrist -7.16333
rhand -23.47 11.7261
rfingers 7.12502
rthumb 2.98918 -18.2327
lclavicle 6.36111e-015 -7.15625e-015
lhumerus -79.7379 -4.27327 98.9949
lradius 105.954
lwrist 25.0669
lhand -21.4437 -7.16998
lfingers 7.12502
lthumb 4.94595 22.7523
rfemur 0.693613 -4.82717 27.3213
rtibia 53.5788
rfoot 16.6076 -1.61337
rtoes -30.5349
lfemur -53.848 7.29128 -32.6922
ltibia 40.1206
lfoot 0.530494 -10.0064
ltoes 5.9538
83
root 0.828273 16.9758 0.23874 9.3936 19.304 -17.8475
lowerback 15.0176 1.43734 12.2945
upperback -0.00353316 4.78048 7.56505
thorax -8.18704 1.99685 0.269641
lowerneck -19.757 -1.41859 -0.810631
upperneck 7.9251 -1.34194 -2.59641
head 5.55975 -0.886456 -0.836878
rclavicle 4.92986e-014 6.67916e-014
rhumerus -49.5194 4.59196 -84.4101
rradius 101.276
rwrist -7.0442
rhand -23.2956 11.4824
rfingers 7.12502
rthumb 3.15761 -18.474
lclavicle 4.92986e-014 6.67916e-014
lhumerus -79.4792 -3.54622 98.6664
lradius 106.563
lwrist 25.1375
lhand -21.177 -7.26747
lfingers 7.12502
lthumb 5.20349 22.6486
rfemur -0.458721 -5.44118 26.5317
rtibia 57.3188
rfoot 16.2648 -2.24958
rtoes -30.2247
lfemur -52.4938 7.31826 -32.9079
ltibia 40.8864
lfoot 0.844178 -10.1932
ltoes 11.6359
84
root 0.907402 16.8835 0.807771 8.9639 19.564 -17.7053
lowerback 14.9348 1.38059 11.9218
upperback 0.0295758 4.61118 7.45781
thorax -8.13165 1.9325 0.390883
lowerneck -19.6178 -1.40872 -0.897853
upperneck 7.98887 -1.33142 -2.4151
head 5.55989 -0.869588 -0.763176
rclavicle 6.2816e-014 1.02573e-013
rhumerus -50.1565 3.98175 -84.3575
rradius 99.4114
rwrist -7.09216
rhand -23.205 11.2205
rfingers 7.12502
rthumb 3.2451 -18.7345
lclavicle 6.2816e-014 1.02573e-013
lhumerus -79.0354 -2.87366 98.3541
lradius 107.156
lwrist 25.1798
lhand -20.9901 -7.34153
lfingers 7.12502
lthumb 5.38392 22.5701
rfemur -1.71763 -6.08305 25.5657
rtibia 61.1007
rfoot 15.8031 -2.93336
rtoes -30.0162
lfemur -50.9839 7.29468 -33.1243
ltibia 41.9537
lfoot 0.359624 -10.3519
ltoes 18.2832
85
root 0.988843 16.7813 1.37442 8.55174 19.8372 -17.4675
lowerback 14.8837 1.29943 11.5097
upperback 0.0459564 4.40802 7.31558
thorax -8.11349 1.84988 0.50195
lowerneck -19.4509 -1.38455 -0.986313
upperneck 8.04078 -1.30014 -2.25229
head 5.55193 -0.84396 -0.69278
rclavicle 6.71892e-014 6.2816e-014
rhumerus -50.8285 3.33658 -84.2721
rradius 97.4622
rwrist -7.28949
rhand -23.1474 10.9669
rfingers 7.12502
rthumb 3.30078 -18.9873
lclavicle 6.71892e-014 6.2816e-014
lhumerus -78.4057 -2.26893 98.0569
lradius 107.743
lwrist 25.1266
lhand -20.884 -7.39552
lfingers 7.12502
lthumb 5.48631 22.5135
rfemur -3.08245 -6.73637 24.4414
rtibia 64.843
rfoot 15.1713 -3.61429
rtoes -29.957
lfemur -49.3124 7.15035 -33.3187
ltibia 43.221
lfoot -1.06006 -10.1744
ltoes 25.0342
86
root 1.07283 16.6712 1.93649 8.18791 20.1323 -17.1137
lowerback 14.8625 1.19184 11.0458
upperback 0.0415476 4.16505 7.13175
thorax -8.13595 1.74648 0.60433
lowerneck -19.2706 -1.34935 -1.07432
upperneck 8.07453 -1.25328 -2.10361
head 5.536 -0.811723 -0.625236
rclavicle 3.10104e-014 2.8625e-014
rhumerus -51.5161 2.66378 -84.1546
rradius 95.4221
rwrist -7.54555
rhand -23.1626 10.7397
rfingers 7.12502
rthumb 3.28609 -19.2147
lclavicle 3.10104e-014 2.8625e-014
lhumerus -77.5614 -1.73359 97.772
lradius 108.314
lwrist 24.9264
lhand -20.8479 -7.42023
lfingers 7.12502
lthumb 5.52116 22.4878
rfemur -4.58442 -7.38965 23.1534
rtibia 68.5178
rfoot 14.3421 -4.24912
rtoes -30.0238
lfemur -47.4991 6.81223 -33.5026
ltibia 44.614
lfoot -3.33704 -9.50706
ltoes 30.7936
87
root 1.15937 16.5567 2.49258 7.94077 20.4533 -16.5677
lowerback 14.845 1.06607 10.457
upperback 0.0111663 3.87435 6.88869
thorax -8.19257 1.62152 0.721842
lowerneck -19.0998 -1.30618 -1.16468
upperneck 8.0895 -1.19453 -1.9627
head 5.51549 -0.774344 -0.558674
rclavicle 1.13307e-014 -2.78299e-014
rhumerus -52.2016 1.95742 -83.9926
rradius 93.2913
rwrist -7.79955
rhand -23.2251 10.5697
rfingers 7.12502
rthumb 3.22575 -19.3856
lclavicle 1.13307e-014 -2.78299e-014
lhumerus -76.4719 -1.27173 97.4944
lradius 108.868
lwrist 24.6048
lhand -20.849 -7.44588
lfingers 7.12502
lthumb 5.5201 22.4622
rfemur -6.28629 -8.03306 21.6437
rtibia 72.1074
rfoot 13.3283 -4.78388
rtoes -30.1195
lfemur -45.5868 6.23161 -33.7595
ltibia 46.0491
lfoot -6.25926 -8.27722
ltoes 35.2424
